<svg id="Capa_1" data-name="Capa 1" xmlns="http://www.w3.org/2000/svg" viewBox="0 0 200 200"><defs><style>.cls-1{fill:#fff;}</style></defs><title>Mesa de trabajo 1 copia</title><path class="cls-1" d="M114.06,20c3.12.5,6.26.89,9.35,1.52A55.4,55.4,0,0,1,141.78,29a59.68,59.68,0,0,1,27.11,59.69c-2.79,16.7-11.24,29.88-25.09,39.59a28.91,28.91,0,0,0-9,9.4c-.14.26-.27.53-.51,1h6.88v5.12c-2.59,0-5.12,0-7.65,0-1,0-1.54.25-1.68,1.3-.17,1.23-.47,2.44-.75,3.89h4.95v5.13H131v6.16c0,3.62-.47,4.1-4.13,4.2-.26,0-.51.05-.86.08-.23,1.27-.36,2.56-.71,3.79-1.76,6.16-5.85,9.88-12.06,11.34a4.59,4.59,0,0,0-.69.29h-4.38c-2.87-.89-5.71-1.8-8-3.91a15.16,15.16,0,0,1-5.1-9.88c-.13-1.3-.42-1.79-1.82-1.75-2.71.08-3.5-.81-3.51-3.55v-6.7h-5V149h4.89c-.36-1.61-.61-3-1-4.41a1.59,1.59,0,0,0-1.23-.74c-2.55-.07-5.1,0-7.78,0v-5.08h6.73a26.19,26.19,0,0,0-7-8.67c-4.18-3.49-8.71-6.68-12.44-10.61A56.36,56.36,0,0,1,51.2,83.89c-.15-2.06-.19-4.13-.29-6.24H56c.18,2.77.21,5.42.53,8a52.56,52.56,0,0,0,21.89,37.39c5,3.62,9.56,7.47,12.2,13.09,1,2.17,2.25,2.64,4.47,2.61,10.62-.12,21.25-.07,31.87,0a2.06,2.06,0,0,0,2.24-1.37A30.72,30.72,0,0,1,140,124.7a53.45,53.45,0,0,0,20.48-25C166.32,85,166,70.32,159.15,56c-6.31-13.25-16.59-22.36-30.28-27.54A49.69,49.69,0,0,0,111,25.25h-4.12c-.1-1.77-.21-3.51-.32-5.25Zm11.88,129,.76-5H93.83l.87,5Zm-5.44,15.61H100.17c-.4,5.33,4.45,10.18,10.12,10.2S120.76,170.06,120.5,164.59ZM95,154.17v5.12h30.87c0-1.14-.08-2.23,0-3.3.13-1.38-.28-1.87-1.78-1.86-9.16.08-18.33,0-27.49,0Z"/><path class="cls-1" d="M62.19,20A4.26,4.26,0,0,1,64,23.56c.55,5.21,4.25,8.71,9.51,9.32a4.41,4.41,0,0,1,2.85,1.48c1.17,1.65-.2,3.56-2.58,3.74a10.45,10.45,0,0,0-6,2.28A9.83,9.83,0,0,0,64,47.3c-.24,2.52-1,3.57-2.62,3.63-1.32,0-2.59-1.07-2.81-3.45-.5-5.38-4.25-8.86-9.61-9.35-2.18-.21-3.23-1.2-3.06-2.92C46,33.75,47,33,49.05,32.83A9.89,9.89,0,0,0,57.64,27a10.9,10.9,0,0,0,1-3.73,3.65,3.65,0,0,1,2-3.26Zm-.9,12L57.88,35.4l3.35,3.49,3.51-3.4Z"/><path class="cls-1" d="M132.49,38.68c8.17-2.62,15.89,4.28,13.43,13.14a13.33,13.33,0,0,1,7.34,7.36,12.87,12.87,0,0,1-.49,10.51c4.09,2,6.54,5.09,6.55,9.65S156.91,87,152.77,89a12.81,12.81,0,0,1,1.08,8.54,12.53,12.53,0,0,1-6.86,8.78c-.6.3-1.22.45-1,1.44A10.22,10.22,0,0,1,133,120.08a.69.69,0,0,0-.25,0,28.38,28.38,0,0,1-3,3.34,9.66,9.66,0,0,1-10.82,1.35c-4.23-2-6-5.57-6-10.11q0-17.49,0-35,0-17.72,0-35.44c0-4.13,1.37-7.58,5-9.79a10.14,10.14,0,0,1,14.06,3.37Zm3.74,15c3.35-.72,5.08-2.61,5-5.37A4.88,4.88,0,0,0,137,43.4a7.14,7.14,0,0,0-3.43.58c-1.82.79-2.4,2.58-2.74,4.31h-5.44c.76-2,1.3-3.76,2.12-5.38a2,2,0,0,0,.08-2.26,5,5,0,0,0-4.85-2.51,4.69,4.69,0,0,0-4.32,3.3,9.18,9.18,0,0,0-.35,2.92q0,35,0,70c0,.57,0,1.15,0,1.71a5.14,5.14,0,0,0,4,4.45,5.25,5.25,0,0,0,5.39-2.33,1.87,1.87,0,0,0,0-2.39,7.7,7.7,0,0,1-1.56-5.42h4.91c.06.25.1.45.15.65.71,2.91,2.75,4.58,5.39,4.41a5.14,5.14,0,0,0,4.83-4.51c.29-2.75-1.27-4.8-4.24-5.68-.32-.09-.78-.44-.79-.7-.08-1.49,0-3,0-5,2.13.86,3.87,1.6,5.63,2.26a3.53,3.53,0,0,0,2,.32,7.69,7.69,0,1,0-10.11-8.44c-.08.42-.45,1.09-.72,1.12-1.47.11-3,0-4.55,0,.28-4.89,2.24-8.58,6.24-11a12.13,12.13,0,0,1,13.17,0,3.32,3.32,0,0,0,3.37.18A5.18,5.18,0,0,0,154,77.89a4.37,4.37,0,0,0-6.55-2.74,12.82,12.82,0,0,1-19-11.29c1.28,0,2.42.07,3.55,0s1.57.35,1.76,1.52a7.56,7.56,0,0,0,7.67,6.23,7.7,7.7,0,0,0,7.47-6.51,7.62,7.62,0,0,0-5-8.41,3,3,0,0,0-2.11.29,10.22,10.22,0,0,1-5.59,1.67Z"/><path class="cls-1" d="M88.1,120a10.27,10.27,0,0,1-13.56-12c.18-.79.13-1.18-.65-1.59-6.72-3.53-9-9.92-6.17-17a2.3,2.3,0,0,0,.06-.45c-4-1.9-6.44-5-6.45-9.57s2.41-7.71,6.54-9.69a13,13,0,0,1-1-8.7,12.55,12.55,0,0,1,6.84-8.62c.62-.32,1.2-.49.94-1.46a10.22,10.22,0,0,1,13.11-12.3,1.67,1.67,0,0,0,.34,0,2.09,2.09,0,0,0,.31-.29c2.82-4.43,7.19-6.33,11.68-5.07,4.81,1.35,7.68,5.27,7.71,10.63,0,6.2,0,12.4,0,18.6v52c0,4.61-1.77,8.19-6,10.27a10.13,10.13,0,0,1-12.55-3.21C88.82,121.11,88.49,120.58,88.1,120Zm4.13-56.12C92,68.79,90,72.46,86,74.85a12.1,12.1,0,0,1-13.15,0,3.39,3.39,0,0,0-3.51-.12A5.14,5.14,0,0,0,66.74,81c.88,2.67,3.84,4.22,5.81,3A12.26,12.26,0,0,1,86,83.86,12.38,12.38,0,0,1,92.2,94.77h-5l-.28-1.41A7.71,7.71,0,1,0,76.55,102a2.28,2.28,0,0,0,2.43-.29,8.84,8.84,0,0,1,5.53-1.66c0,1.3-.05,2.48,0,3.67,0,1-.22,1.41-1.3,1.64a5,5,0,0,0-3.84,5.34,5.11,5.11,0,0,0,4.49,4.67,5,5,0,0,0,5.53-3.57c.15-.48.27-1,.39-1.43h5.4a41.36,41.36,0,0,1-2.07,5.34,2.06,2.06,0,0,0,0,2.52A5,5,0,0,0,98,120.58a4.67,4.67,0,0,0,4.2-3.24,9.49,9.49,0,0,0,.38-3.06q0-34.9,0-69.82c0-.57,0-1.14,0-1.71a5.13,5.13,0,0,0-4.06-4.57A5.3,5.3,0,0,0,93,40.7a1.73,1.73,0,0,0,.07,2.11,7.67,7.67,0,0,1,1.58,5.52H89.79C89,44.82,87,43,84.2,43.26a5.17,5.17,0,0,0-4.8,4.55,5.24,5.24,0,0,0,3.81,5.58c.46.14,1.2.48,1.23.78.12,1.48,0,3,0,5-2.15-.87-3.89-1.6-5.65-2.26A3.37,3.37,0,0,0,77,56.58a7.62,7.62,0,0,0-5.35,8A7.73,7.73,0,0,0,87,65.07a1.69,1.69,0,0,1,1-1.16A41.6,41.6,0,0,1,92.23,63.86Z"/><path class="cls-1" d="M45.88,76.74c-1.52.05-2.39-1-2.75-3a15.81,15.81,0,0,0-1.33-4.58A9.44,9.44,0,0,0,34.09,64c-2.6-.29-3.72-1.07-3.75-2.69s1-2.36,3.68-2.72a10.18,10.18,0,0,0,9.13-9.53,6.93,6.93,0,0,1,.1-.78c.3-1.6,1.18-2.43,2.57-2.43a2.5,2.5,0,0,1,2.56,2.6,11.15,11.15,0,0,0,2.11,6.09,10.7,10.7,0,0,0,8.2,4.19,2.48,2.48,0,0,1,2.56,2.44,2.54,2.54,0,0,1-2.35,2.62c-.41.08-.82.15-1.23.19a9.14,9.14,0,0,0-7.36,4.39,17,17,0,0,0-1.83,5.37C48.08,75.62,47.35,76.7,45.88,76.74Zm-.09-12.06,3.5-3.33-3.47-3.54-3.48,3.46Z"/></svg>