<svg id="Capa_1" data-name="Capa 1" xmlns="http://www.w3.org/2000/svg" viewBox="0 0 200 200"><defs><style>.cls-1{fill:#fff;}</style></defs><title>Mesa de trabajo 2 copia</title><path class="cls-1" d="M55.63,20c2.24.41,4.52.67,6.72,1.24A33.59,33.59,0,0,1,81.41,73c-.4.59-.81,1.17-1.2,1.73,2.12.5,4.16.85,6.12,1.48,3.42,1.09,5,3.6,5.27,7.14a48.24,48.24,0,0,0,1.09,7.08,13.4,13.4,0,0,1-1.55,10.5,4.26,4.26,0,0,0-.6,3.48,16.7,16.7,0,0,1-1,9.5c-2.37,6.52-5.77,12.34-11.71,16.33-.24.16-.62.43-.61.63a30.71,30.71,0,0,0,.61,6.24c.43,1.6,1.68,3,2.49,4.48a2,2,0,0,0,2,1.14,39.81,39.81,0,0,1,7.27.71,20.82,20.82,0,0,1,15.76,19.91c.07,4.21-.06,8.43.06,12.65a3.77,3.77,0,0,1-2.27,4H20V162.19a7.88,7.88,0,0,0,.28-1,20.84,20.84,0,0,1,12.1-16.5A21.4,21.4,0,0,1,43,142.73a2.08,2.08,0,0,0,2.21-1.27c.79-1.52,2.05-2.88,2.49-4.48a29.34,29.34,0,0,0,.53-6.1c0-.2-.38-.47-.62-.64C40.13,125.12,36.9,117.5,35.26,109c-.63-3.26-.16-6.59-1.09-9.93-1.44-5.15-.57-10.44.95-15.53a1.68,1.68,0,0,0-.77-2.27A32.43,32.43,0,0,1,21.53,63.37c-.7-2.42-1-4.95-1.53-7.43V51.25a7.91,7.91,0,0,0,.26-1,33.47,33.47,0,0,1,25.05-29c2.15-.55,4.38-.81,6.57-1.2ZM75.35,35.9c-.47.59-.82,1.11-1.24,1.56a11,11,0,0,1-1.39,1.25c-1.46,1.09-2.82,1-3.92-.11s-1.07-2.39.07-3.78c.79-1,1.7-1.81,2.61-2.78a27.58,27.58,0,0,0-14.93-6.18c0,1.25.06,2.34,0,3.43-.12,2.12-1.14,3.22-2.86,3.18S51.07,31.38,51,29.31c-.06-1.12,0-2.24,0-3.48a27.51,27.51,0,0,0-15,6.41,27.64,27.64,0,0,1,2.46,2.17c1.5,1.64,1.56,3,.29,4.24S36,39.8,34.38,38.31a25.13,25.13,0,0,1-2.1-2.49A27.09,27.09,0,0,0,25.87,51c1.37,0,2.51-.07,3.65,0,1.94.14,2.94,1.13,2.95,2.76s-1,2.63-2.93,2.79c-1.17.09-2.37,0-3.69,0A28.21,28.21,0,0,0,32,71.5c1-.91,1.79-1.77,2.7-2.53,1.52-1.26,2.88-1.25,4-.07s1.12,2.43-.08,3.9c-.75.93-1.61,1.76-2.52,2.73a26.86,26.86,0,0,0,14.83,6.1c0-1.31-.06-2.4,0-3.48.13-2,1.13-3.06,2.83-3s2.59,1,2.74,3c.08,1.13,0,2.27,0,3.54a27.51,27.51,0,0,0,14.95-6.13c-.89-.94-1.77-1.76-2.53-2.68-1.25-1.51-1.25-2.89-.08-4s2.46-1.07,3.92.13c.94.78,1.79,1.67,2.73,2.55a27.53,27.53,0,0,0,6.09-14.93c-1.3,0-2.4.06-3.48,0-2-.15-3.06-1.15-3-2.85s1-2.58,3-2.72c1.13-.08,2.26,0,3.55,0A27.49,27.49,0,0,0,75.35,35.9ZM63.19,129.43a44.12,44.12,0,0,0,5.08-.89c9.15-2.53,14-9.25,16.34-17.86,1.78-6.41.18-8.71-6.74-8.73A127,127,0,0,0,65,103c-4.34.41-8.5.28-12.22-2.5a13.2,13.2,0,0,0-3.93-1.83,4.51,4.51,0,0,0-2.72,0c-3.17,1.14-6.11,6-5.29,9.3a51.94,51.94,0,0,0,3.39,10C47.9,125.65,54.51,128.88,63.19,129.43ZM59.86,156.5c-.74.91-1.26,1.6-1.82,2.24-2,2.26-3.65,2.22-5.49-.15a83.74,83.74,0,0,1-5.46-7.21c-1.61-2.61-3.63-3.29-6.58-3.06a15.61,15.61,0,0,0-14.08,11c-1.42,4.89-.49,9.9-.76,14.93H36.94v-1.75c0-2,0-3.95,0-5.93a2.79,2.79,0,0,1,5.58-.13c.05,2.59,0,5.17,0,7.77H59.86Zm39.86,17.73c0-3.77,0-7.36,0-10.95a14.42,14.42,0,0,0-3-8.56c-3.61-4.85-8.58-6.65-14.48-6.42a2.8,2.8,0,0,0-2.47,1.21c-2.34,3.19-4.75,6.33-7.17,9.45-1.46,1.88-3.3,1.88-4.84.06-.65-.76-1.28-1.55-2.08-2.52v17.7H82.87c0-2.57,0-5,0-7.46,0-1.77.87-2.8,2.34-3a2.65,2.65,0,0,1,3.26,2.81c0,2.53,0,5.06,0,7.68ZM86.23,98.1a7.67,7.67,0,0,0,1.1-5.9,80.56,80.56,0,0,1-1.3-8c-.15-1.69-.79-2.7-2.38-2.95a71.16,71.16,0,0,0-7.42-.88,4.9,4.9,0,0,0-2.83.83c-7.85,5.34-16.4,7.45-25.79,5.65-2.37-.45-4.68-1.22-7.12-1.87a29.6,29.6,0,0,0-1.06,11.94c.74-.69,1.23-1.15,1.74-1.6a8.73,8.73,0,0,1,9.54-1.9,40.63,40.63,0,0,1,6.17,2.95,7.89,7.89,0,0,0,5,1.19c4-.38,8.07-.84,12.11-1.16S82.25,96.21,86.23,98.1Zm-32.5,35.27c.27,1.17.2,2.16.67,2.67,2.62,2.87,5.37,5.62,8.38,8.72,2.68-2.79,5.06-5.4,7.59-7.87a3.09,3.09,0,0,0,1-3.41A26.43,26.43,0,0,1,53.73,133.37Zm-2,7.94c-.75,1.3-1.38,2.31-1.91,3.36a1.31,1.31,0,0,0,0,1.11c1.78,2.39,3.62,4.74,5.53,7.21l3.38-4.17C56.41,146.33,54.17,143.91,51.74,141.31Zm22,.16-7,7.32,3.42,4.2c1.87-2.46,3.66-4.81,5.41-7.18a1.08,1.08,0,0,0,.1-.94C75.07,143.73,74.4,142.63,73.73,141.47Z"/><path class="cls-1" d="M180,61.56c-.88,2-2.49,2.49-4.67,2.14,0,.65-.08,1.2-.08,1.74,0,5.88,0,11.76,0,17.65,0,2.93-.88,3.81-3.82,3.81H108.65c-3,0-3.83-.86-3.83-3.79q0-8.74,0-17.49V64c-.25-.13-.33-.21-.42-.22-3.88-.24-4.26-.63-4.26-4.48V34.65c0-4,.59-4.64,4.56-4.64h20.65c0-2.05.08-4,0-6A3.75,3.75,0,0,1,127.5,20h25a3.63,3.63,0,0,1,2.22,4c-.12,1.95,0,3.91,0,6h1.83c6.43,0,12.86,0,19.29,0,1.9,0,3.32.46,4.19,2.21ZM110.53,81.18h59V63.86h-6.75c0,1.48.09,2.89,0,4.27-.17,2.07-1.19,3.09-2.84,3.06s-2.6-1.08-2.72-3.16c-.08-1.38,0-2.77,0-4.14H122.82a47.55,47.55,0,0,1,0,4.79c-.22,2-2,3.11-3.71,2.24a3.37,3.37,0,0,1-1.58-2.07,38.39,38.39,0,0,1-.39-5h-6.58ZM123,35.66V58h34.05V35.66ZM105.85,58h11.32V35.68H105.85Zm68.35,0V35.68H162.85V58.05ZM149,25.82H131.08v4.07H149Z"/><path class="cls-1" d="M136.56,180a4,4,0,0,1-2.17-4.09c.12-1.6.53-3.54-.18-4.74s-2.63-1.35-4-2a7.69,7.69,0,0,1-1.2-.66c-1.28,1.43-2.51,2.92-3.87,4.28s-3,1.45-4.51,0c-2.56-2.52-5.11-5-7.62-7.62-1.4-1.42-1.41-2.82,0-4.24s2.84-2.75,4.22-4.08c-.68-1.67-1.24-3.18-1.93-4.63a1.57,1.57,0,0,0-1.18-.66c-1.55-.08-3.12,0-4.68,0-2.27,0-3.34-1.08-3.36-3.37,0-3.49,0-7,0-10.47,0-2.21,1.08-3.21,3.3-3.26,1.51,0,3,0,4.53,0a1.35,1.35,0,0,0,1.58-1.08c.45-1.37,1.09-2.69,1.76-4.28-1.32-1.25-2.75-2.55-4.1-3.91-1.56-1.57-1.56-3,0-4.61q3.74-3.78,7.52-7.51c1.52-1.49,3-1.48,4.5,0,1.37,1.35,2.68,2.77,4,4.12,1.65-.68,3.16-1.23,4.61-1.91a1.61,1.61,0,0,0,.68-1.17c.08-1.61,0-3.23,0-4.84,0-2.12,1-3.19,3.18-3.22,3.54,0,7.08,0,10.62,0,2.2,0,3.25,1.11,3.29,3.29,0,1.51,0,3,0,4.53a1.34,1.34,0,0,0,1.06,1.59c1.38.45,2.69,1.1,4.32,1.78,1.24-1.31,2.52-2.74,3.88-4.1,1.6-1.6,3-1.58,4.58,0q3.66,3.63,7.29,7.29c1.67,1.7,1.68,3.18,0,4.86-1.28,1.3-2.6,2.55-3.89,3.81.66,1.69,1.25,3.28,1.94,4.84.11.25.65.44,1,.45a34.37,34.37,0,0,0,4.06,0,4,4,0,0,1,4.24,2.17v12.82a3.91,3.91,0,0,1-4.23,2.15c-.46-.06-1,.06-1.4,0-2.43-.38-4.19.19-4.64,2.94-.08.5-.55.93-.62,1.42a1.89,1.89,0,0,0,.24,1.42c1.1,1.24,2.34,2.36,3.49,3.56a2.78,2.78,0,0,1,0,4.37q-3.78,3.83-7.61,7.61a2.78,2.78,0,0,1-4.37,0c-1.2-1.15-2.33-2.38-3.56-3.5a1.51,1.51,0,0,0-1.27-.29c-1.46.52-3.45.79-4.15,1.87s-.28,3.09-.34,4.69a.86.86,0,0,0,0,.16,3.91,3.91,0,0,1-2.15,4.23Zm9.11-5.72c.11-.24.19-.33.19-.42,0-1.41,0-2.81,0-4.22,0-2.66.33-3,2.84-3.92,2.24-.82,4.45-1.73,6.61-2.74,1.72-.81,2.69-.79,4.06.57,1.17,1.18,2.28,2.42,3.27,3.48l4.38-4.24c-1-1-2.1-2-3.13-3-1.85-1.84-1.87-2.39-.77-4.8,1-2.12,1.88-4.27,2.65-6.47.69-2,1.34-2.6,3.47-2.62,1.64,0,3.28,0,4.89,0V140h-4.81c-2.3,0-2.66-.34-3.5-2.53-1-2.46-2-4.88-3.08-7.3a2.82,2.82,0,0,1,.53-3.43c1.26-1.29,2.51-2.59,3.43-3.54-1.38-1.51-2.61-2.88-3.94-4.34-1,1.08-2.07,2.18-3.14,3.25-1.66,1.67-2.26,1.71-4.4.75s-4.37-1.93-6.62-2.7c-2.1-.73-2.72-1.35-2.73-3.56,0-1.63,0-3.27,0-4.9h-5.85c0,1.64,0,3.18,0,4.73,0,2.29-.37,2.71-2.49,3.54-2.32.9-4.63,1.83-6.87,2.91-1.79.86-2.77.89-4.18-.57-1.15-1.19-2.17-2.51-3.27-3.8l-4.61,4.63c1.22,1.07,2.47,2.08,3.62,3.2,1.59,1.56,1.59,2.21.66,4.29-1.06,2.36-2,4.76-3,7.18a3,3,0,0,1-3,2.2c-1.7,0-3.4,0-5.15,0v5.86c1.61,0,3.11,0,4.61,0,2.41,0,2.8.35,3.66,2.54,1,2.41,2,4.78,3.06,7.15a3,3,0,0,1-.57,3.7c-1.24,1.18-2.49,2.35-3.77,3.55l4.53,4.46c1-1.15,1.94-2.39,3-3.5,1.67-1.72,2.24-1.72,4.4-.74s4.26,1.93,6.46,2.68c2.36.8,2.88,1.33,2.89,3.9v4.64Z"/><path class="cls-1" d="M50.94,46.9c0-2.19,0-4.38,0-6.56,0-1.9,1.11-3,2.83-3s2.77,1.13,2.78,3.06c0,3.49.08,7,0,10.46A3.69,3.69,0,0,0,57.86,54c1.55,1.39,3,2.88,4.46,4.37s1.44,2.85.19,4.11-2.8,1.27-4.24-.16C56.12,60.15,54,58,51.94,55.8a4.32,4.32,0,0,1-1-2.5C50.85,51.17,50.94,49,50.94,46.9Z"/><path class="cls-1" d="M158.5,143a15.59,15.59,0,0,1-31.17-.07,15.59,15.59,0,1,1,31.17.07Zm-5.63,0a10,10,0,1,0-9.89,9.91A9.84,9.84,0,0,0,152.87,143Z"/></svg>