<svg id="Capa_1" data-name="Capa 1" xmlns="http://www.w3.org/2000/svg" viewBox="0 0 200 200"><defs><style>.cls-1{fill:#fff;}</style></defs><title>Mesa de trabajo 3 copia</title><path class="cls-1" d="M113.91,96.64c.2,4.19.42,8.29.61,12.38.17,3.59.32,7.18.47,10.77a11,11,0,0,1,0,1.4c-.3,3.54-2,5.74-4.86,6.24-3.54.61-6.8-1-8-4.22-.93-2.51-1.42-5.19-2.17-8-.19.92-.33,1.67-.51,2.41-.39,1.67-.68,3.37-1.23,5a7,7,0,0,1-8,4.9,5.45,5.45,0,0,1-4.78-4.5,15.43,15.43,0,0,1-.32-3.71c.28-7.07.64-14.14,1-21.21,0-.41,0-.82,0-1.36-.68.2-1.3.41-1.92.56-5.12,1.31-9.22-1.62-9-6.86a88.27,88.27,0,0,1,1.57-13.45c1-5.4,2.58-10.7,3.9-16a12.51,12.51,0,0,1,8.89-9.24,33,33,0,0,1,21.6.18,12.49,12.49,0,0,1,8.3,8.64,140.64,140.64,0,0,1,5.55,26.84,24.52,24.52,0,0,1,.08,3.43c-.22,4.81-4,7.66-8.68,6.62C115.54,97.19,114.81,96.92,113.91,96.64Zm-5,1.08c-.54-9.51-1-17.47-1.42-25.42-.11-2,.75-3.16,2.31-3.25s2.45.93,2.71,2.93c.7,5.42,1.38,10.84,2.24,16.23a8.54,8.54,0,0,0,1.7,3.57,2.4,2.4,0,0,0,2.16.69c.59-.2,1.1-1.17,1.27-1.89a8.7,8.7,0,0,0,0-2.79,136.38,136.38,0,0,0-5.44-26.07A7.22,7.22,0,0,0,110,56.81a27.54,27.54,0,0,0-19.82-.12,7.28,7.28,0,0,0-4.76,5.21C84.62,65,83.56,68.08,83,71.24,81.84,77.37,81,83.54,80,89.7c-.17,1.16.08,2.41,1.45,2.79a2.35,2.35,0,0,0,2.84-1.66,21.31,21.31,0,0,0,1.26-4.63c.71-4.89,1.29-9.8,1.91-14.7a2.5,2.5,0,1,1,5,.19c0,.78-.06,1.56-.1,2.34q-1,18.72-2,37.43c-.16,3.07-.28,6.14-.27,9.21a2.24,2.24,0,0,0,1,1.75,1.73,1.73,0,0,0,2.25-1.16,13.56,13.56,0,0,0,.69-2.39c1.15-7,2.26-14.07,3.4-21.11.27-1.69,1.09-2.47,2.47-2.5s2.37.83,2.63,2.52c.94,6,1.82,11.93,2.78,17.89a54,54,0,0,0,1.27,5.46,1.71,1.71,0,0,0,2.31,1.28c.5-.17.87-1.11,1-1.77a7.86,7.86,0,0,0,0-2.17C109.61,111,109.24,103.6,109,97.72Z"/><path class="cls-1" d="M160.75,110c.28-3.52.53-6.88.81-10.24.19-2.33.29-4.68.61-7a9.19,9.19,0,0,1,9-7.78,6.13,6.13,0,0,1,6.27,5.91c.08,10.57.1,21.14-.05,31.71a10,10,0,0,1-1.7,4.93c-3,4.68-6.11,9.31-9.43,13.77q-7.64,10.27-15.64,20.28c-2.31,2.91-3.66,6-3.13,9.73a21.81,21.81,0,0,1,0,3.43,2.49,2.49,0,1,1-5,.16,84.87,84.87,0,0,1,.07-8.74,8.36,8.36,0,0,1,1.66-4c4.75-6.46,9.65-12.8,14.44-19.23,3.91-5.26,7.74-10.58,11.59-15.88a12,12,0,0,0,2.24-7.6c-.14-9.06-.05-18.12-.05-27.18,0-2.28-1.11-2.93-3.18-1.85a4.46,4.46,0,0,0-2.36,4c-.35,4.52-.67,9-1,13.55-.28,3.63-.44,7.29-1,10.88a7.81,7.81,0,0,1-2,4.09c-6,6.17-12.1,12.2-18.19,18.27a5.33,5.33,0,0,1-1.21,1,2.46,2.46,0,0,1-3.24-3.37,6.77,6.77,0,0,1,1.1-1.3l17.23-17.24c1.71-1.71,2-3.12.88-4.66a4.33,4.33,0,0,0-5.32-1.27,11.09,11.09,0,0,0-2.13,1.56q-7.25,6.42-14.46,12.89a29.33,29.33,0,0,1-7.28,4.74,28.21,28.21,0,0,0-14.75,16.18c-1.23,3.19-.74,6.45.21,9.52a46,46,0,0,1,1.66,15.11c-.06,2-.94,3.13-2.49,3.15s-2.57-1.13-2.5-3.09a45.1,45.1,0,0,0-1.71-14.64c-2.4-8.11.51-15,5.52-21.28a35.37,35.37,0,0,1,13-10,26.44,26.44,0,0,0,5.83-4.09c4.69-4,9.26-8.23,13.9-12.34C152.8,108.63,155.72,108.12,160.75,110Z"/><path class="cls-1" d="M39.24,110.05c4.86-2.2,8.74-1,12.33,2.37q7.22,6.7,14.7,13.09a22.92,22.92,0,0,0,5.1,3.23,34.43,34.43,0,0,1,17.61,19c1.61,4,1.3,8.15.16,12.12a44.47,44.47,0,0,0-1.63,14.49c0,.21,0,.42,0,.63a2.52,2.52,0,0,1-2.45,2.53A2.41,2.41,0,0,1,82.54,175c0-4.67-.43-9.37,1.18-13.92a32.7,32.7,0,0,0,.93-3.94,15.44,15.44,0,0,0-2-11.39,30,30,0,0,0-14-12.82,23.61,23.61,0,0,1-5.69-3.76c-5.17-4.45-10.22-9-15.3-13.59A5.13,5.13,0,0,0,43.06,114,3.64,3.64,0,0,0,40,116.57a3.19,3.19,0,0,0,1.06,3.49c5.81,5.74,11.58,11.54,17.36,17.33a7.62,7.62,0,0,1,1.13,1.28,2.27,2.27,0,0,1-.31,3,2.32,2.32,0,0,1-3.13.37,4,4,0,0,1-.71-.6c-6.23-6.22-12.5-12.39-18.62-18.72a7.24,7.24,0,0,1-1.78-4c-.65-6.31-1.07-12.65-1.58-19-.17-2.08-.3-4.16-.57-6.22a3.85,3.85,0,0,0-2.8-3.24c-1.79-.62-2.56-.09-2.56,1.8,0,8.59.21,17.2-.09,25.78a17.15,17.15,0,0,0,3.67,11.56Q40.59,141.78,50,154.24c2.06,2.74,4,5.61,5.9,8.45a8.65,8.65,0,0,1,1.6,5.58c-.13,2.08,0,4.17,0,6.25,0,1.83-1,3-2.51,3s-2.46-1.11-2.47-3c0-2.13.1-4.28,0-6.4a6.88,6.88,0,0,0-1-3.47c-4.52-6.11-9.24-12.07-13.78-18.16q-6.2-8.33-12.16-16.82a16.85,16.85,0,0,1-3-10.42c.21-9.06.07-18.12.07-27.19,0-5.45,4.14-8.38,9.28-6.51a8.53,8.53,0,0,1,6,7.3c.57,5,.85,10,1.25,14.93C39.12,108.46,39.17,109.13,39.24,110.05Z"/><path class="cls-1" d="M145.17,84.56c.21,3.81.45,7.39.6,11,.13,3,.33,6,.18,9s-1.92,5-4.36,5.37a6.49,6.49,0,0,1-7.22-3.4,57.16,57.16,0,0,1-1.92-5.88c-.45,1.7-.76,3.26-1.28,4.74a6.56,6.56,0,0,1-7.44,4.57,5.64,5.64,0,0,1-4.7-6.33,2.27,2.27,0,0,1,2.24-2,2.42,2.42,0,0,1,2.53,1.68c.27.61-.16,1.74,1.13,1.69s1.55-.95,1.73-1.89c1-5.41,2-10.83,3-16.25.11-.56.19-1.13.32-1.69a2.38,2.38,0,0,1,2.51-2.09A2.35,2.35,0,0,1,135,85.19c.75,4,1.45,8.09,2.17,12.13.32,1.74.64,3.48,1,5.21a3.56,3.56,0,0,0,.57,1.59,2.43,2.43,0,0,0,1.52.79c.23,0,.76-.78.76-1.21,0-2.4-.05-4.79-.19-7.18-.61-10.5-1.27-21-1.89-31.49-.11-1.74.74-2.88,2.2-3s2.43.74,2.77,2.39c.81,4,1.51,8.07,2.4,12.08A14.13,14.13,0,0,0,147.87,80a1.31,1.31,0,0,0,1.14.57,1.53,1.53,0,0,0,.87-1.1,14.81,14.81,0,0,0-.3-3.71c-1.74-7-3.56-13.89-5.35-20.84a5.36,5.36,0,0,0-3.73-3.67,25,25,0,0,0-11.4-1c-2.83.29-5.51.93-7.71,3a2.25,2.25,0,0,1-3.34-.27c-.89-1.06-1-2.41,0-3.23a19.2,19.2,0,0,1,5.51-3.36,29.72,29.72,0,0,1,17.83-.07,10.6,10.6,0,0,1,7.94,8.17c1.76,7.49,3.69,14.93,5.48,22.41a9.21,9.21,0,0,1,.12,3.1c-.46,4.5-4,6.71-8.3,5.19Z"/><path class="cls-1" d="M75.8,104.9c.16-.6.25-1.11.43-1.59a2.29,2.29,0,0,1,2.65-1.68A2.32,2.32,0,0,1,81,104.1a5.63,5.63,0,0,1-3.83,5.65c-2.86.86-6.22-.2-7.5-2.69a36.06,36.06,0,0,1-1.8-5.28,2.21,2.21,0,0,0-.49-1c-.4,1.52-.73,3.06-1.22,4.55a6.2,6.2,0,0,1-5.35,4.59c-3.7.53-6.45-1.43-6.73-5.16a66.09,66.09,0,0,1,.08-8c.16-3.79.42-7.59.64-11.38,0-.25,0-.49,0-.87l-.94.39c-4.75,1.92-8.9-.66-8.73-5.8a49.21,49.21,0,0,1,1.66-9.81c1.16-4.91,2.69-9.73,3.84-14.63A11,11,0,0,1,59,46.13a30.12,30.12,0,0,1,17.54.19,18.13,18.13,0,0,1,5.18,3,2.37,2.37,0,0,1,.29,3.7c-1,1-2.33.88-3.65,0a13.71,13.71,0,0,0-3.92-2.12A25.88,25.88,0,0,0,60.21,51a6.08,6.08,0,0,0-4.72,4.84C53.83,62.93,51.93,70,50.2,77.13c-.3,1.2-.78,3,.79,3.37,1.42.36,2-1.39,2.23-2.54,1-4.19,1.86-8.42,2.69-12.65.48-2.4,1.35-3.5,2.94-3.33s2.3,1.36,2.16,3.83q-1,18.24-2.09,36.49a3,3,0,0,0,0,1.08,12.18,12.18,0,0,0,.82,1.61c.58-.41,1.53-.72,1.69-1.25a62.56,62.56,0,0,0,1.4-6.24c.73-3.94,1.39-7.89,2.11-11.83.33-1.82,1.13-2.6,2.55-2.61s2.27.77,2.6,2.55c1.05,5.63,2,11.26,3.1,16.88C73.42,103.81,73.7,105.29,75.8,104.9Z"/><path class="cls-1" d="M89.89,33.77a11,11,0,0,1,3.86-8.72,9.24,9.24,0,0,1,12.85.29,11.83,11.83,0,0,1-.12,16.91c-6.79,6.08-14.67.8-16.14-5.25C90.09,36,90,34.85,89.89,33.77Zm5-.05H95c0,.41,0,.83,0,1.25a5.62,5.62,0,0,0,4.09,4.8c2,.56,3.4-.53,4.61-1.88s1.4-3.3,1.28-5.15a5.76,5.76,0,0,0-4.79-5.22c-2-.17-4.38,1.81-5,4.2A14.64,14.64,0,0,0,94.93,33.72Z"/><path class="cls-1" d="M123.12,32.35c0-5.58,4-9.81,9.3-9.85A9.37,9.37,0,0,1,141.88,32c0,5.86-4,10.4-9.3,10.46S123.15,38,123.12,32.35Zm13.77.49c0-3-1.85-5.27-4.32-5.33s-4.46,2.3-4.46,5.36a4.4,4.4,0,1,0,8.78,0Z"/><path class="cls-1" d="M58.13,32.51c0-5.51,4.28-10,9.44-10s9.3,4.53,9.3,10-4.28,10-9.44,10S58.13,38,58.13,32.51Zm5,0c0,2.69,2,4.95,4.35,5s4.42-2.29,4.39-5.08-2.07-4.93-4.43-4.89S63.12,29.82,63.13,32.52Z"/></svg>